<svg preserveAspectRatio="xMidYMid meet" data-bbox="19.988 19.578 160 160" viewBox="19.988 19.578 160 160" height="40" width="40" xmlns="http://www.w3.org/2000/svg" data-type="color" role="presentation" aria-hidden="true" aria-labelledby="svgcid-s5bs6t-5v7zk3"><defs><style>#comp-kyv9rse6 svg [data-color="1"] {fill: #FFFFFF;}
#comp-kyv9rse6 svg [data-color="2"] {fill: #323232;}
#comp-kyv9rse6 svg [data-color="3"] {fill: #323232;}</style></defs><title id="svgcid-s5bs6t-5v7zk3"></title>
    <g>
        <path fill="#fff" d="M179.988 99.578c0 44.183-35.817 80-80 80s-80-35.817-80-80 35.817-80 80-80 80 35.817 80 80z" data-color="1"></path>
        <path d="M99.988 23.578c41.907 0 76 34.093 76 76s-34.093 76-76 76-76-34.093-76-76 34.093-76 76-76m0-4c-44.183 0-80 35.817-80 80s35.817 80 80 80 80-35.817 80-80-35.817-80-80-80z" fill="#323232" data-color="2"></path>
        <path fill="#787878" d="M99.988 69.578h-6l28 28h-50v4h50l-28 28h6l28-28v-4l-28-28z" data-color="3"></path>
    </g>
</svg>