<svg preserveAspectRatio="xMidYMid meet" data-bbox="96.9 64.9 492.3 537.4" viewBox="96.9 64.9 492.3 537.4" xmlns="http://www.w3.org/2000/svg" data-type="shape" role="presentation" aria-hidden="true" aria-labelledby="svgcid-wqbyld1cc8b4"><title id="svgcid-wqbyld1cc8b4"></title>
    <path d="M293.7 553.6h-43.8c-6 0-10.9-4.9-10.9-10.9V371.2c0-6 4.9-10.9 10.9-10.9h43.8c6 0 10.9 4.9 10.9 10.9v171.5c0 6-4.9 10.9-10.9 10.9zm-32.8-21.9h21.9V382.1h-21.9v149.6z"></path>
    <path d="M249.9 575.5H107.8c-6 0-10.9-4.9-10.9-10.9V349.3c0-6 4.9-10.9 10.9-10.9H250c6 0 10.9 4.9 10.9 10.9v215.2c0 6.1-4.9 11-11 11zm-131.2-21.9H239V360.2H118.7v193.4z"></path>
    <path d="M324.4 479.4c-4.1 0-8.1-2.4-10-6.4-2.5-5.5-.1-12 5.4-14.5 31.1-14.2 30.9-72.7 28.3-94-.8-6 3.5-11.5 9.5-12.2 6-.8 11.5 3.5 12.2 9.5.5 3.8 11.1 92.9-40.9 116.7-1.4.6-3 .9-4.5.9z"></path>
    <path d="M516.4 356.5H429c-4.5 0-8.5-2.7-10.1-6.9l-7.9-19.7c-.7-1.7-2.5-2.7-4.3-2.5l-36.6 5.7-33.8 12.4c-3.1 1.2-6.7.8-9.5-1-2.9-1.8-4.7-4.7-5.1-8.1l-5.9-51.6c-.4-3.1.6-6.2 2.7-8.5s5-3.7 8.2-3.7h196.9c3.1 0 6.1 1.3 8.2 3.7 2.1 2.3 3.1 5.4 2.7 8.5l-7 61.9c-.9 5.6-5.6 9.8-11.1 9.8zm-80.1-21.9h70.3l4.5-40H338.7l2.9 25.6 21.7-8c.7-.2 1.4-.4 2.1-.5l37.7-5.9c1.3-.2 2.7-.3 4-.3 10.6 0 20 6.4 24 16.2l5.2 12.9z"></path>
    <path d="M437 449.3c-2.3 0-4.7-.2-6.9-.6-9.7-1.6-18.5-6.6-24.8-14.1l-54.6-64.4c-6.1-7.2-3.3-17.9 1.6-33.5l.8-2.4c1.2-3.8 3-9.5 3.3-11.4-.1-5.4 3.8-10.2 9.3-11.1l37.7-5.9c1.3-.2 2.7-.3 4-.3 10.6 0 20 6.4 24 16.2l11.1 27.6 26.6 31.4c.6.7 1.1 1.4 1.5 1.9l.1.1c5.2 7 8.1 15.3 8.3 24 .3 12.6-5.1 24.5-14.7 32.6-.8.7-1.7 1.3-2.6 2-7.5 5.2-15.9 7.9-24.7 7.9zm-67.9-91.2 52.8 62.3c3 3.6 7.2 5.9 11.8 6.7 1.1.2 2.2.3 3.3.3 4.2 0 8.1-1.3 11.5-3.7.5-.4.9-.7 1.3-1 4.6-3.9 7.1-9.5 7-15.5-.1-4.1-1.4-8-3.9-11.4l-.1-.2c-.2-.3-.4-.6-.7-.9L424.4 362c-.8-.9-1.4-1.9-1.8-3l-11.8-29.2c-.7-1.7-2.5-2.7-4.3-2.5l-30.1 4.7c-.7 2.4-1.6 5.3-2.6 8.6l-.8 2.4c-2.2 7.4-3.5 12.5-3.9 15.1z"></path>
    <path d="M556.2 294.6H293.7c-6 0-10.9-4.9-10.9-10.9v-43.8c0-6 4.9-10.9 10.9-10.9h112.4c2.5 0 5 .9 7 2.5 9.1 7.6 20.7 11.7 32.5 11.7 11.9 0 23.4-4.2 32.6-11.7 2-1.6 4.4-2.5 7-2.5h71c6 0 10.9 4.9 10.9 10.9v43.8c0 6-4.9 10.9-10.9 10.9zm-251.6-21.9h240.6v-21.9h-56.4a73.12 73.12 0 0 1-43.3 14.2c-15.6 0-30.8-5-43.2-14.2h-97.7v21.9z"></path>
    <path d="M445.6 265.1c-16.9 0-33.4-5.9-46.5-16.7-.1-.1-.2-.2-.3-.2-39.8-.5-72-33.1-72-73 0-24.7 20-49.2 39.2-72.9 8.8-10.7 17.8-21.9 24.2-32.2 2-3.2 5.5-5.2 9.3-5.2 3.8 0 7.3 1.9 9.3 5.1 5.5 8.8 12.8 18.1 20.2 27.2 2.4-3.3 4.8-6.8 6.9-10.2 2-3.2 5.5-5.2 9.3-5.2 3.8 0 7.3 1.9 9.3 5.1 6.6 10.6 15.9 21.8 24.8 32.7 19.2 23.3 39.1 47.4 39.1 72.3 0 21.8-9.7 42.4-26.5 56.3-12.8 10.9-29.3 16.9-46.3 16.9zm-42.7-38.9c2.8 0 5.5 1.1 7.5 3 .8.7 1.6 1.5 2.6 2.3 9.1 7.6 20.7 11.7 32.5 11.7 11.9 0 23.4-4.2 32.6-11.7 11.8-9.8 18.6-24.1 18.6-39.4 0-17-17.4-38.1-34.1-58.4-5.8-7.1-11.8-14.3-17.2-21.6-2.6 3.5-5.1 6.7-7.4 9.5-2.1 2.6-5.2 4.1-8.5 4.1h-.1c-3.3 0-6.4-1.5-8.5-4-1.2-1.5-2.5-3-3.7-4.5-6-7.2-12.1-14.6-17.6-22.1-5.2 7-10.9 14.1-16.6 20.9-16.9 20.7-34.3 42.2-34.3 59 0 28.2 22.9 51.2 51.1 51.2.9 0 1.7 0 2.6-.1.2.1.3.1.5.1z"></path>
    <path d="M488.5 602.3h-47.9c-12.9 0-24.7-8.4-30.7-21.8-.6-1.4-1.2-2.9-1.7-4.4-.2-.7-.4-1.4-.5-2l-1.8-14.2c-.1-.7-.1-1.3-.1-2 1.2-22.1 16.2-38.8 34.8-38.8h47.9c19.2 0 34.9 18.7 34.9 41.7s-15.7 41.5-34.9 41.5zm-59.3-32.2c.2.5.4 1 .6 1.4 2.5 5.5 6.6 8.9 10.8 8.9h47.9c6.9 0 13-9.2 13-19.8 0-10.5-6.1-19.8-13-19.8h-47.9c-6.4 0-12.1 7.6-12.9 17.2l1.5 12.1z"></path>
    <path d="M516.9 540.8h-56.7c-3.4 0-6.8-.5-10-1.4C433 534.6 421 518 421 499.1s12-35.5 29.2-40.3c3.3-.9 6.6-1.4 10-1.4h56.7c21.7 0 39.3 18.7 39.3 41.7s-17.6 41.7-39.3 41.7zm-56.6-61.4c-1.4 0-2.8.2-4.1.6-7.8 2.2-13.3 10.1-13.3 19.2s5.4 17 13.3 19.2c1.3.4 2.7.6 4.1.6H517c9.6 0 17.4-8.9 17.4-19.8s-7.8-19.8-17.4-19.8h-56.7z"></path>
    <path d="M534.3 479.4h-71.7c-3.5 0-7-.4-10.4-1.3-18.3-4.7-31.1-21.2-31.2-40.1 0-3.2 1.4-6.3 3.8-8.4 2.5-2.1 5.7-3 8.9-2.5 1.1.2 2.2.3 3.3.3 4.2 0 8.1-1.3 11.5-3.7.5-.4.9-.7 1.3-1 4.6-3.9 7.1-9.5 7-15.5-.1-2.9 1.1-5.8 3.1-7.9s4.9-3.3 7.8-3.3h66.6c23 0 41.7 18.7 41.7 41.7 0 23-18.7 41.7-41.7 41.7zm-88.3-31c2.6 4.1 6.8 7.3 11.7 8.5 1.6.4 3.3.6 5 .6h71.7c10.9 0 19.8-8.9 19.8-19.8s-8.9-19.8-19.8-19.8h-56.9c-2.1 8.3-6.7 15.8-13.4 21.5-.8.7-1.7 1.3-2.6 2.1-4.8 3.3-10 5.6-15.5 6.9z"></path>
    <path d="M547.1 418h-79.4c-6 0-10.8-4.8-10.9-10.7-.1-4.1-1.4-8-3.9-11.4l-.1-.2c-.2-.3-.4-.6-.7-.9l-27.7-32.7c-.8-.9-1.4-1.9-1.8-3l-3.8-9.5c-1.4-3.4-.9-7.2 1.1-10.2 2-3 5.4-4.8 9.1-4.8h118.2c23 0 41.7 18.7 41.7 41.7-.1 23-18.8 41.6-41.8 41.7zm-70-21.9h70c10.9 0 19.8-8.9 19.8-19.8s-8.9-19.8-19.8-19.8h-98.8l20.5 24.2c.6.7 1.1 1.4 1.5 1.9l.1.1c3.1 4.1 5.3 8.6 6.7 13.4z"></path>
    <path d="M200.7 535.2c-9 0-16.4-7.4-16.4-16.4 0-9 7.4-16.4 16.4-16.4s16.4 7.4 16.4 16.4c0 9.1-7.3 16.4-16.4 16.4zm0-21.8c-3 0-5.5 2.5-5.5 5.5s2.5 5.5 5.5 5.5 5.5-2.5 5.5-5.5c0-3.1-2.5-5.5-5.5-5.5z"></path>
    <path d="M488.5 602.3h-47.9c-10.7 0-20.6-5.7-27.1-15.4H318c-19.4 0-35.1-15.8-35.1-35.1V365.9c0-16.8 11.7-31.1 28.1-34.4l52.6-19.3c3.2-1.2 6.8-.8 9.7 1.1 2.9 1.9 4.7 5 5 8.4.3 4.3-1.2 9.5-4.2 19.1l-.8 2.4c-2.3 7.3-3.6 12.3-3.9 15l52.8 62.3c3 3.6 7.2 5.9 11.8 6.7 1.1.2 2.2.3 3.3.3 4.2 0 8.1-1.3 11.5-3.7.5-.4.9-.7 1.3-1 4.6-3.9 7.1-9.5 7-15.5-.1-4.1-1.4-8-3.9-11.4l-.1-.2c-.2-.3-.4-.6-.7-.9l-27.7-32.7c-.8-.9-1.4-1.9-1.8-3l-3.8-9.5c-1.4-3.4-.9-7.2 1.1-10.2 2-3 5.4-4.8 9.1-4.8h118.2c23 0 41.7 18.7 41.7 41.7 0 15.6-8.6 29.2-21.3 36.3 5.3 7 8.5 15.7 8.5 25.1 0 17.5-10.9 32.5-26.2 38.7 4 6.5 6.4 14.4 6.4 22.8 0 22.2-16.4 40.4-37 41.6 2.7 5.9 4.2 12.7 4.2 19.8-.4 23-16.1 41.7-35.3 41.7zM351.1 340.1l-33.6 12.3c-.6.2-1.3.4-1.9.5-6.4 1.1-11 6.6-11 13.1v185.8c0 7.3 5.9 13.3 13.3 13.3h101.9c4.3 0 8.2 2.5 10 6.4 2.5 5.5 6.6 8.9 10.8 8.9h47.9c6.9 0 13-9.2 13-19.8 0-10.5-6.1-19.8-13-19.8-6 0-10.9-4.9-10.9-10.9s4.9-10.9 10.9-10.9h28.4c9.6 0 17.4-8.9 17.4-19.8s-7.8-19.8-17.4-19.8c-6 0-10.9-4.9-10.9-10.9s4.9-10.9 10.9-10.9h17.4c10.9 0 19.8-8.9 19.8-19.8s-8.9-19.8-19.8-19.8c-6 0-10.9-4.9-10.9-10.9s4.9-10.9 10.9-10.9h12.8c10.9 0 19.8-8.9 19.8-19.8s-8.9-19.8-19.8-19.8h-98.8l20.5 24.2c.6.7 1.1 1.4 1.5 1.9l.1.1c5.2 7 8.1 15.3 8.3 24 .3 12.6-5.1 24.5-14.7 32.6-.8.7-1.7 1.3-2.6 2-7.1 5.1-15.5 7.8-24.3 7.8-2.3 0-4.7-.2-6.9-.6-9.7-1.6-18.5-6.6-24.8-14.1l-54.6-64.4c-5.8-6.6-3.8-16.3.3-30z"></path>
</svg>