<svg viewBox="97.6 69 510.3 524.9" xmlns="http://www.w3.org/2000/svg">
	<path d="M356.4 90.8c-2.9 0-5.7-1.2-7.7-3.2s-3.2-4.9-3.2-7.7 1.2-5.7 3.2-7.7 4.9-3.2 7.7-3.2c2.9 0 5.7 1.2 7.7 3.2s3.2 4.9 3.2 7.7-1.2 5.7-3.2 7.7-4.8 3.2-7.7 3.2z"></path>
	<path d="M356.4 123.6c-2.9 0-5.7-1.2-7.7-3.2s-3.2-4.9-3.2-7.7 1.2-5.7 3.2-7.7 4.9-3.2 7.7-3.2c2.9 0 5.7 1.2 7.7 3.2s3.2 4.9 3.2 7.7-1.2 5.7-3.2 7.7-4.8 3.2-7.7 3.2z"></path>
	<path d="M356.4 156.4c-2.9 0-5.7-1.2-7.7-3.2s-3.2-4.9-3.2-7.7 1.2-5.7 3.2-7.7 4.9-3.2 7.7-3.2c2.9 0 5.7 1.2 7.7 3.2s3.2 4.9 3.2 7.7-1.2 5.7-3.2 7.7-4.8 3.2-7.7 3.2z"></path>
	<path d="M528.1 159.6c-2.9 0-5.7-1.2-7.7-3.2s-3.2-4.9-3.2-7.7c0-2.9 1.2-5.7 3.2-7.7s4.8-3.2 7.7-3.2c2.9 0 5.7 1.2 7.7 3.2s3.2 4.9 3.2 7.7c0 2.9-1.2 5.7-3.2 7.7s-4.8 3.2-7.7 3.2z"></path>
	<path d="M504.9 182.8c-2.9 0-5.7-1.2-7.7-3.2s-3.2-4.9-3.2-7.7c0-2.9 1.2-5.7 3.2-7.7s4.9-3.2 7.7-3.2c2.9 0 5.7 1.2 7.7 3.2s3.2 4.9 3.2 7.7c0 2.9-1.2 5.7-3.2 7.7-2 2.1-4.8 3.2-7.7 3.2z"></path>
	<path d="M481.7 206c-2.9 0-5.7-1.2-7.7-3.2s-3.2-4.9-3.2-7.7c0-2.9 1.2-5.7 3.2-7.7s4.9-3.2 7.7-3.2 5.7 1.2 7.7 3.2 3.2 4.9 3.2 7.7c0 2.9-1.2 5.7-3.2 7.7-2 2.1-4.8 3.2-7.7 3.2z"></path>
	<path d="M223.8 445.8c-2.9 0-5.7-1.2-7.7-3.2s-3.2-4.8-3.2-7.7c0-2.9 1.2-5.7 3.2-7.7s4.8-3.2 7.7-3.2c2.9 0 5.7 1.2 7.7 3.2s3.2 4.9 3.2 7.7c0 2.9-1.2 5.7-3.2 7.7s-4.8 3.2-7.7 3.2z"></path>
	<path d="M200.6 469c-2.9 0-5.7-1.2-7.7-3.2s-3.2-4.9-3.2-7.7 1.2-5.7 3.2-7.7 4.9-3.2 7.7-3.2c2.9 0 5.7 1.2 7.7 3.2s3.2 4.9 3.2 7.7c0 2.9-1.2 5.7-3.2 7.7s-4.8 3.2-7.7 3.2z"></path>
	<path d="M177.4 492.2c-2.9 0-5.7-1.2-7.7-3.2s-3.2-4.9-3.2-7.7c0-2.9 1.2-5.7 3.2-7.7s4.9-3.2 7.7-3.2c2.9 0 5.7 1.2 7.7 3.2s3.2 4.9 3.2 7.7c0 2.9-1.2 5.7-3.2 7.7s-4.8 3.2-7.7 3.2z"></path>
	<path d="M597 325.9c-2.9 0-5.7-1.2-7.7-3.2s-3.2-4.9-3.2-7.7 1.2-5.7 3.2-7.7 4.9-3.2 7.7-3.2c2.9 0 5.7 1.2 7.7 3.2s3.2 4.9 3.2 7.7c0 2.9-1.2 5.7-3.2 7.7s-4.8 3.2-7.7 3.2z"></path>
	<path d="M564.2 325.9c-2.9 0-5.7-1.2-7.7-3.2s-3.2-4.9-3.2-7.7 1.2-5.7 3.2-7.7 4.9-3.2 7.7-3.2c2.9 0 5.7 1.2 7.7 3.2s3.2 4.9 3.2 7.7c0 2.9-1.2 5.7-3.2 7.7s-4.8 3.2-7.7 3.2z"></path>
	<path d="M531.4 325.9c-2.9 0-5.7-1.2-7.7-3.2s-3.2-4.9-3.2-7.7 1.2-5.7 3.2-7.7 4.9-3.2 7.7-3.2c2.9 0 5.7 1.2 7.7 3.2s3.2 4.9 3.2 7.7c0 2.9-1.2 5.7-3.2 7.7s-4.8 3.2-7.7 3.2z"></path>
	<path d="M174.1 325.9c-2.9 0-5.7-1.2-7.7-3.2s-3.2-4.9-3.2-7.7c0-2.9 1.2-5.7 3.2-7.7s4.9-3.2 7.7-3.2c2.9 0 5.7 1.2 7.7 3.2s3.2 4.9 3.2 7.7c0 2.9-1.2 5.7-3.2 7.7s-4.8 3.2-7.7 3.2z"></path>
	<path d="M141.3 325.9c-2.9 0-5.7-1.2-7.7-3.2s-3.2-4.9-3.2-7.7c0-2.9 1.2-5.7 3.2-7.7s4.9-3.2 7.7-3.2c2.9 0 5.7 1.2 7.7 3.2s3.2 4.9 3.2 7.7c0 2.9-1.2 5.7-3.2 7.7s-4.8 3.2-7.7 3.2z"></path>
	<path d="M108.5 325.9c-2.9 0-5.7-1.2-7.7-3.2s-3.2-4.9-3.2-7.7c0-2.9 1.2-5.7 3.2-7.7s4.9-3.2 7.7-3.2c2.9 0 5.7 1.2 7.7 3.2s3.2 4.9 3.2 7.7c0 2.9-1.2 5.7-3.2 7.7s-4.8 3.2-7.7 3.2z"></path>
	<path d="M177.4 159.6c-2.9 0-5.7-1.2-7.7-3.2s-3.2-4.8-3.2-7.7c0-2.9 1.2-5.7 3.2-7.7s4.9-3.2 7.7-3.2c2.9 0 5.7 1.2 7.7 3.2s3.2 4.9 3.2 7.7c0 2.9-1.2 5.7-3.2 7.7s-4.8 3.2-7.7 3.2z"></path>
	<path d="M200.6 182.8c-2.9 0-5.7-1.2-7.7-3.2s-3.2-4.9-3.2-7.7c0-2.9 1.2-5.7 3.2-7.7s4.9-3.2 7.7-3.2c2.9 0 5.7 1.2 7.7 3.2s3.2 4.9 3.2 7.7c0 2.9-1.2 5.7-3.2 7.7-2 2.1-4.8 3.2-7.7 3.2z"></path>
	<path d="M223.8 206c-2.9 0-5.7-1.2-7.7-3.2s-3.2-4.9-3.2-7.7c0-2.9 1.2-5.7 3.2-7.7s4.8-3.2 7.7-3.2c2.9 0 5.7 1.2 7.7 3.2s3.2 4.9 3.2 7.7c0 2.9-1.2 5.7-3.2 7.7-2 2.1-4.8 3.2-7.7 3.2z"></path>
	<path d="M481.7 445.8c-2.9 0-5.7-1.2-7.7-3.2s-3.2-4.8-3.2-7.7c0-2.9 1.2-5.7 3.2-7.7s4.9-3.2 7.7-3.2 5.7 1.2 7.7 3.2 3.2 4.9 3.2 7.7-1.2 5.7-3.2 7.7-4.8 3.2-7.7 3.2z"></path>
	<path d="M504.9 469c-2.9 0-5.7-1.2-7.7-3.2s-3.2-4.8-3.2-7.7c0-2.9 1.2-5.7 3.2-7.7s4.9-3.2 7.7-3.2c2.9 0 5.7 1.2 7.7 3.2s3.2 4.9 3.2 7.7c0 2.9-1.2 5.7-3.2 7.7s-4.8 3.2-7.7 3.2z"></path>
	<path d="M528.1 492.2c-2.9 0-5.7-1.2-7.7-3.2s-3.2-4.9-3.2-7.7c0-2.9 1.2-5.7 3.2-7.7s4.8-3.2 7.7-3.2c2.9 0 5.7 1.2 7.7 3.2s3.2 4.9 3.2 7.7c0 2.9-1.2 5.7-3.2 7.7s-4.8 3.2-7.7 3.2z"></path>
	<path d="M411.1 495.4H301.7c-6 0-10.9-4.9-10.9-10.9v-48.8c-46.7-24.4-76.6-73.1-76.6-126.2 0-78.4 63.8-142.2 142.2-142.2s142.2 63.8 142.2 142.2c0 53-29.8 101.8-76.6 126.2v48.8c0 6-4.9 10.9-10.9 10.9zm-98.5-21.8h87.5v-44.7c0-4.3 2.5-8.2 6.4-9.9 42.6-19.6 70.2-62.5 70.2-109.4 0-66.3-54-120.3-120.3-120.3s-120.3 54-120.3 120.3c0 46.9 27.6 89.8 70.2 109.4 3.9 1.8 6.4 5.7 6.4 9.9l-.1 44.7z"></path>
	<path d="M400.1 561.1h-87.5c-6 0-10.9-4.9-10.9-10.9v-65.6c0-6 4.9-10.9 10.9-10.9h87.5c6 0 10.9 4.9 10.9 10.9v65.6c.1 6-4.8 10.9-10.9 10.9zm-76.5-21.9h65.6v-43.8h-65.6v43.8z"></path>
	<path d="M378.2 593.9c-6 0-10.9-4.9-10.9-10.9v-21.9h-21.9V583c0 6-4.9 10.9-10.9 10.9s-10.9-4.9-10.9-10.9v-32.8c0-6 4.9-10.9 10.9-10.9h43.8c6 0 10.9 4.9 10.9 10.9V583c0 6-4.9 10.9-11 10.9z"></path>
	<path d="M432.9 528.2H279.8c-6 0-10.9-4.9-10.9-10.9s4.9-10.9 10.9-10.9h153.1c6 0 10.9 4.9 10.9 10.9.1 6.1-4.8 10.9-10.9 10.9z"></path>
	<path d="M432.9 495.4H279.8c-6 0-10.9-4.9-10.9-10.9s4.9-10.9 10.9-10.9h153.1c6 0 10.9 4.9 10.9 10.9s-4.8 10.9-10.9 10.9z"></path>
	<path d="M356.4 375.1c-36.2 0-65.6-29.4-65.6-65.6s29.4-65.6 65.6-65.6 65.6 29.4 65.6 65.6-29.4 65.6-65.6 65.6zm0-109.4c-24.1 0-43.8 19.6-43.8 43.8s19.6 43.8 43.8 43.8 43.8-19.6 43.8-43.8-19.7-43.8-43.8-43.8z"></path>
	<path d="M356.4 495.4c-6 0-10.9-4.9-10.9-10.9v-175c0-6 4.9-10.9 10.9-10.9s10.9 4.9 10.9 10.9v175c0 6-4.9 10.9-10.9 10.9z"></path>
</svg>